<svg width="209" height="49" viewBox="0 0 209 49" fill="none" xmlns="http://www.w3.org/2000/svg">
<path d="M0 0L16.3496 1.52529V35.0817L31.3684 38.7043V45.7588L0 49V0Z" fill="#FE5C01"/>
<path d="M46.9576 5.52918L31.3684 8.77043V38.7043L46.9576 42.5175V5.52918Z" fill="#FE5C01"/>
<path d="M60.7217 16.1635L60.2472 13.6376L69.4273 6.44436H73.0774L60.7217 16.1635ZM58.8966 19.2568V6.44436H61.6342V19.2568H58.8966ZM69.5733 19.2568L64.0798 12.5028L65.7224 10.5626L72.9862 19.2568H69.5733Z" fill="#151515"/>
<path d="M78.5376 19.2568V6.44436H89.7253V8.86042H81.2022V16.8407H89.853V19.2568H78.5376ZM79.9976 13.8939V11.551H88.8492V13.8939H79.9976Z" fill="#151515"/>
<path d="M95.7724 19.2568V6.44436H103.2C104.137 6.44436 104.946 6.61519 105.628 6.95685C106.321 7.28632 106.857 7.75611 107.234 8.36622C107.611 8.97634 107.8 9.68408 107.8 10.4894C107.8 11.2948 107.587 12.0208 107.161 12.6675C106.747 13.3021 106.181 13.8085 105.464 14.1867C104.758 14.565 103.967 14.7541 103.091 14.7541H98.4187V19.2568H95.7724ZM105.318 19.2568L100.974 13.4729L103.857 13.0153L108.566 19.2751L105.318 19.2568ZM98.4187 12.5211H102.781C103.182 12.5211 103.547 12.4418 103.876 12.2832C104.216 12.1123 104.484 11.8805 104.679 11.5876C104.886 11.2948 104.989 10.9653 104.989 10.5993C104.989 10.2454 104.886 9.93422 104.679 9.66577C104.484 9.39732 104.216 9.18988 103.876 9.04345C103.535 8.89703 103.164 8.82381 102.762 8.82381H98.4187V12.5211Z" fill="#151515"/>
<path d="M112.483 19.2568L118.78 6.44436H121.517L127.796 19.2568H124.912L120.97 11.2582C120.848 11.0019 120.726 10.7579 120.605 10.526C120.495 10.2942 120.392 10.0684 120.295 9.84881C120.197 9.61696 120.106 9.38512 120.021 9.15327C119.936 8.92143 119.85 8.67738 119.765 8.42113L120.422 8.40283C120.337 8.67128 120.246 8.92753 120.149 9.17158C120.051 9.41562 119.948 9.65357 119.838 9.88542C119.741 10.1173 119.637 10.3491 119.528 10.5809C119.418 10.8128 119.303 11.0568 119.181 11.3131L115.257 19.2568H112.483ZM115.33 16.7492L116.279 14.5345H123.908L124.291 16.7492H115.33Z" fill="#151515"/>
<path d="M132.345 19.2568V6.44436H134.845L140.667 13.6742H139.262L145.084 6.44436H147.585V19.2568H144.902V14.6809C144.902 13.6681 144.926 12.7164 144.975 11.8256C145.023 10.9348 145.121 10.0257 145.267 9.09836L145.54 10.0318L140.576 15.9622H139.372L134.353 9.99523L134.663 9.09836C134.809 10.0257 134.906 10.9348 134.955 11.8256C135.004 12.7164 135.028 13.6681 135.028 14.6809V19.2568H132.345Z" fill="#151515"/>
<path d="M154.256 19.2568V16.7675H157.669V8.93363H154.256V6.44436H163.82V8.93363H160.407V16.7675H163.82V19.2568H154.256Z" fill="#151515"/>
<path d="M172.329 16.1635L171.855 13.6376L181.035 6.44436H184.685L172.329 16.1635ZM170.504 19.2568V6.44436H173.242V19.2568H170.504ZM181.181 19.2568L175.687 12.5028L177.33 10.5626L184.594 19.2568H181.181Z" fill="#151515"/>
<path d="M58.8966 34.7004V21.8879H66.0874C67.1946 21.8879 68.1193 22.0161 68.8615 22.2723C69.6159 22.5164 70.1817 22.8763 70.5589 23.3522C70.9482 23.8281 71.1429 24.3955 71.1429 25.0544C71.1429 25.7622 70.9239 26.3662 70.4858 26.8665C70.06 27.3546 69.4151 27.7023 68.5513 27.9098L68.6608 27.562C69.1961 27.684 69.7071 27.8793 70.1938 28.1477C70.6805 28.4162 71.0699 28.7761 71.3619 29.2276C71.6661 29.6669 71.8182 30.2099 71.8182 30.8566C71.8182 31.6254 71.66 32.2599 71.3436 32.7602C71.0273 33.2605 70.6075 33.651 70.0843 33.9316C69.5611 34.2123 68.9893 34.4136 68.3688 34.5357C67.7604 34.6455 67.1581 34.7004 66.5619 34.7004H58.8966ZM61.5247 32.3209H66.6349C67.1095 32.3209 67.5292 32.266 67.8942 32.1562C68.2714 32.0464 68.5634 31.8755 68.7703 31.6437C68.9893 31.3997 69.0988 31.1007 69.0988 30.7468C69.0988 30.3319 68.9589 30.0147 68.679 29.795C68.4113 29.5632 68.0768 29.4046 67.6752 29.3192C67.2859 29.2215 66.9087 29.1727 66.5437 29.1727H61.5247V32.3209ZM61.5247 26.9763H66.2334C66.6349 26.9763 67 26.9214 67.3285 26.8116C67.6692 26.7018 67.9307 26.5431 68.1133 26.3357C68.3079 26.1282 68.4053 25.8781 68.4053 25.5852C68.4053 25.0971 68.1802 24.7555 67.73 24.5602C67.292 24.365 66.7444 24.2674 66.0874 24.2674H61.5247V26.9763Z" fill="#151515"/>
<path d="M75.4649 34.7004L81.7614 21.8879H84.499L90.7772 34.7004H87.8936L83.9515 26.7018C83.8298 26.4455 83.7081 26.2015 83.5865 25.9696C83.477 25.7378 83.3735 25.512 83.2762 25.2924C83.1789 25.0605 83.0876 24.8287 83.0024 24.5969C82.9173 24.365 82.8321 24.121 82.7469 23.8647L83.4039 23.8464C83.3188 24.1149 83.2275 24.3711 83.1302 24.6152C83.0328 24.8592 82.9294 25.0971 82.8199 25.329C82.7226 25.5608 82.6192 25.7927 82.5097 26.0245C82.4002 26.2564 82.2846 26.5004 82.1629 26.7567L78.239 34.7004H75.4649ZM78.312 32.1928L79.261 29.9781H86.8898L87.2731 32.1928H78.312Z" fill="#151515"/>
<path d="M95.3268 34.7004V21.8879H97.9549L107.573 31.4607H107.245C107.184 31.0214 107.129 30.5943 107.08 30.1794C107.044 29.7523 107.013 29.3375 106.989 28.9348C106.965 28.5199 106.94 28.1172 106.916 27.7267C106.904 27.3241 106.892 26.9336 106.88 26.5553C106.88 26.1649 106.88 25.7744 106.88 25.3839V21.8879H109.562V34.7004H106.898L97.1336 25.0361L97.6446 25.0544C97.669 25.2497 97.6933 25.4754 97.7177 25.7317C97.7542 25.9757 97.7907 26.2564 97.8272 26.5736C97.8637 26.8787 97.8941 27.2143 97.9184 27.5803C97.9427 27.9464 97.961 28.343 97.9732 28.7701C97.9975 29.1849 98.0097 29.6242 98.0097 30.0879V34.7004H95.3268Z" fill="#151515"/>
<path d="M122.701 34.8834C121.63 34.8834 120.626 34.7431 119.689 34.4624C118.765 34.1818 117.956 33.7669 117.262 33.2178C116.569 32.6687 116.021 31.9854 115.619 31.1678C115.23 30.338 115.035 29.368 115.035 28.2576C115.035 27.318 115.236 26.4516 115.638 25.6585C116.039 24.8531 116.605 24.1576 117.335 23.5719C118.065 22.9739 118.923 22.5103 119.908 22.1808C120.894 21.8513 121.965 21.6866 123.121 21.6866C124.07 21.6866 124.94 21.7903 125.73 21.9978C126.533 22.2052 127.239 22.4675 127.847 22.7848C128.468 23.1021 128.961 23.4437 129.326 23.8098L127.628 25.7134C127.239 25.4205 126.807 25.1582 126.333 24.9263C125.87 24.6945 125.365 24.5114 124.818 24.3772C124.282 24.2308 123.711 24.1576 123.102 24.1576C122.372 24.1576 121.691 24.2613 121.058 24.4687C120.438 24.6762 119.89 24.9629 119.416 25.329C118.941 25.6951 118.57 26.1282 118.302 26.6285C118.047 27.1288 117.919 27.6718 117.919 28.2576C117.919 29.0019 118.059 29.6425 118.339 30.1794C118.619 30.7041 118.996 31.1312 119.47 31.4607C119.957 31.7779 120.499 32.0159 121.095 32.1745C121.703 32.3209 122.342 32.3941 123.011 32.3941C123.68 32.3941 124.307 32.3331 124.891 32.2111C125.475 32.0891 125.98 31.9121 126.406 31.6803C126.844 31.4485 127.178 31.1739 127.409 30.8566C127.653 30.5272 127.762 30.1733 127.738 29.795L127.72 29.4839L128.103 30.1428H122.902V27.8915H130.457C130.469 28.0745 130.482 28.2576 130.494 28.4406C130.506 28.6114 130.512 28.7639 130.512 28.8982C130.524 29.0202 130.53 29.1056 130.53 29.1544C130.53 30.1184 130.342 30.9604 129.965 31.6803C129.587 32.388 129.052 32.9799 128.359 33.4557C127.677 33.9316 126.856 34.2916 125.895 34.5357C124.933 34.7675 123.869 34.8834 122.701 34.8834Z" fill="#151515"/>
<path d="M142.371 34.8102C141.033 34.8102 139.865 34.5418 138.867 34.0049C137.882 33.4557 137.109 32.7114 136.549 31.7718C136.002 30.8322 135.728 29.7645 135.728 28.5687V21.8696H138.484V28.4955C138.484 29.2398 138.654 29.8988 138.995 30.4723C139.336 31.0458 139.798 31.4973 140.382 31.8267C140.966 32.1562 141.629 32.3209 142.371 32.3209C143.138 32.3209 143.819 32.1562 144.415 31.8267C145.012 31.4973 145.48 31.0458 145.821 30.4723C146.161 29.8988 146.332 29.2398 146.332 28.4955V21.8696H148.996V28.5687C148.996 29.7645 148.717 30.8322 148.157 31.7718C147.609 32.7114 146.837 33.4557 145.839 34.0049C144.853 34.5418 143.698 34.8102 142.371 34.8102Z" fill="#151515"/>
<path d="M155.23 34.7004V21.8879H157.858L167.476 31.4607H167.148C167.087 31.0214 167.032 30.5943 166.983 30.1794C166.947 29.7523 166.916 29.3375 166.892 28.9348C166.868 28.5199 166.843 28.1172 166.819 27.7267C166.807 27.3241 166.795 26.9336 166.783 26.5553C166.783 26.1649 166.783 25.7744 166.783 25.3839V21.8879H169.465V34.7004H166.801L157.037 25.0361L157.548 25.0544C157.572 25.2497 157.596 25.4754 157.621 25.7317C157.657 25.9757 157.694 26.2564 157.73 26.5736C157.767 26.8787 157.797 27.2143 157.821 27.5803C157.846 27.9464 157.864 28.343 157.876 28.7701C157.901 29.1849 157.913 29.6242 157.913 30.0879V34.7004H155.23Z" fill="#151515"/>
<path d="M174.026 34.7004L180.322 21.8879H183.06L189.338 34.7004H186.455L182.513 26.7018C182.391 26.4455 182.269 26.2015 182.148 25.9696C182.038 25.7378 181.935 25.512 181.837 25.2924C181.74 25.0605 181.649 24.8287 181.564 24.5969C181.478 24.365 181.393 24.121 181.308 23.8647L181.965 23.8464C181.88 24.1149 181.789 24.3711 181.691 24.6152C181.594 24.8592 181.49 25.0971 181.381 25.329C181.284 25.5608 181.18 25.7927 181.071 26.0245C180.961 26.2564 180.846 26.5004 180.724 26.7567L176.8 34.7004H174.026ZM176.873 32.1928L177.822 29.9781H185.451L185.834 32.1928H176.873Z" fill="#151515"/>
<path d="M193.888 34.7004V21.8879H196.516L206.134 31.4607H205.806C205.745 31.0214 205.69 30.5943 205.641 30.1794C205.605 29.7523 205.574 29.3375 205.55 28.9348C205.526 28.5199 205.501 28.1172 205.477 27.7267C205.465 27.3241 205.453 26.9336 205.441 26.5553C205.441 26.1649 205.441 25.7744 205.441 25.3839V21.8879H208.123V34.7004H205.459L195.695 25.0361L196.206 25.0544C196.23 25.2497 196.254 25.4754 196.279 25.7317C196.315 25.9757 196.352 26.2564 196.388 26.5736C196.425 26.8787 196.455 27.2143 196.479 27.5803C196.504 27.9464 196.522 28.343 196.534 28.7701C196.559 29.1849 196.571 29.6242 196.571 30.0879V34.7004H193.888Z" fill="#151515"/>
<path d="M58.9757 46.3307V39.9245H62.416C62.8662 39.9245 63.2525 39.9886 63.5749 40.1167C63.9034 40.2387 64.1559 40.4187 64.3323 40.6566C64.5148 40.8946 64.6061 41.1844 64.6061 41.5261C64.6061 41.8982 64.4935 42.2094 64.2684 42.4595C64.0433 42.7036 63.7179 42.8775 63.292 42.9812L63.3103 42.8256C63.6144 42.8805 63.8882 42.9781 64.1316 43.1185C64.3749 43.2588 64.5696 43.4388 64.7156 43.6584C64.8677 43.8781 64.9437 44.1435 64.9437 44.4546C64.9437 44.778 64.8768 45.0586 64.743 45.2966C64.6091 45.5284 64.4357 45.7206 64.2228 45.8731C64.016 46.0257 63.7787 46.1416 63.511 46.2209C63.2494 46.2941 62.9787 46.3307 62.6989 46.3307H58.9757ZM59.4411 45.8731H62.5985C62.9209 45.8792 63.219 45.8335 63.4928 45.7359C63.7726 45.6382 64.0008 45.4857 64.1772 45.2783C64.3536 45.0647 64.4418 44.8085 64.4418 44.5095C64.4418 44.2106 64.3536 43.9635 64.1772 43.7682C64.0068 43.573 63.7787 43.4266 63.4928 43.329C63.2069 43.2252 62.8935 43.1734 62.5529 43.1734H59.4411V45.8731ZM59.4411 42.7158H62.5802C62.9088 42.7158 63.1856 42.6731 63.4107 42.5877C63.6418 42.4961 63.8152 42.365 63.9308 42.1941C64.0525 42.0172 64.1133 41.8037 64.1133 41.5535C64.1133 41.1691 63.9673 40.8793 63.6753 40.6841C63.3833 40.4828 62.9878 40.3821 62.489 40.3821H59.4411V42.7158Z" fill="#151515"/>
<path d="M66.9931 46.3307L70.0958 39.9245H70.7528L73.828 46.3307H73.3079L70.9262 41.3522C70.8227 41.1081 70.7437 40.9312 70.6889 40.8214C70.6402 40.7116 70.5977 40.6292 70.5612 40.5743C70.5307 40.5194 70.5003 40.4584 70.4699 40.3912C70.4395 40.318 70.3969 40.1991 70.3421 40.0343H70.4699C70.403 40.2357 70.3482 40.3821 70.3056 40.4736C70.2691 40.559 70.2326 40.6322 70.1961 40.6933C70.1596 40.7543 70.1171 40.8336 70.0684 40.9312C70.0197 41.0288 69.9498 41.1874 69.8585 41.4071L67.4768 46.3307H66.9931ZM68.2159 44.4821L68.4167 44.0336H72.441L72.5414 44.4821H68.2159Z" fill="#151515"/>
<path d="M76.4511 46.3307V39.9245H76.953L82.7385 45.8365L82.6473 46.0745C82.6412 45.983 82.6351 45.803 82.629 45.5345C82.629 45.2661 82.629 44.9641 82.629 44.6285C82.629 44.2868 82.626 43.9604 82.6199 43.6493C82.6199 43.332 82.6199 43.0666 82.6199 42.8531C82.6199 42.6334 82.6169 42.5205 82.6108 42.5145V39.9245H83.067V46.3307H82.5378L76.7979 40.4736L76.8344 40.2174C76.8344 40.2601 76.8344 40.3699 76.8344 40.5468C76.8405 40.7177 76.8466 40.9251 76.8527 41.1691C76.8587 41.4132 76.8648 41.6664 76.8709 41.9287C76.8831 42.1911 76.8922 42.4351 76.8983 42.6609C76.9044 42.8805 76.9074 43.0544 76.9074 43.1825V46.3307H76.4511Z" fill="#151515"/>
<path d="M86.5746 46.3307V39.9245H89.6316C90.173 39.9245 90.6628 40.0069 91.1008 40.1716C91.5388 40.3363 91.9129 40.5621 92.2232 40.8488C92.5335 41.1295 92.7738 41.465 92.9441 41.8555C93.1145 42.246 93.1996 42.67 93.1996 43.1276C93.1996 43.5852 93.1145 44.0123 92.9441 44.4089C92.7738 44.7993 92.5335 45.1349 92.2232 45.4156C91.9129 45.6962 91.5388 45.9189 91.1008 46.0836C90.6628 46.2484 90.173 46.3307 89.6316 46.3307H86.5746ZM87.0309 46.0287L86.9031 45.8731H89.586C90.0605 45.8731 90.4894 45.806 90.8727 45.6718C91.2559 45.5376 91.5814 45.3454 91.8491 45.0952C92.1228 44.8451 92.3327 44.5553 92.4787 44.2258C92.6247 43.8964 92.6977 43.5303 92.6977 43.1276C92.6977 42.731 92.6247 42.368 92.4787 42.0386C92.3327 41.7091 92.1228 41.4193 91.8491 41.1691C91.5814 40.919 91.2559 40.7268 90.8727 40.5926C90.4894 40.4523 90.0605 40.3821 89.586 40.3821H86.8757L87.0309 40.2448V46.0287Z" fill="#151515"/>
<path d="M99.1845 46.3948C98.564 46.3948 98.0225 46.2606 97.5602 45.9921C97.1039 45.7237 96.748 45.3545 96.4925 44.8848C96.2431 44.4089 96.1184 43.8689 96.1184 43.2649V39.9245H96.5746V43.2374C96.5746 43.7682 96.6872 44.238 96.9123 44.6468C97.1374 45.0495 97.4476 45.3637 97.8431 45.5894C98.2385 45.8152 98.6856 45.9281 99.1845 45.9281C99.7138 45.9281 100.176 45.8152 100.572 45.5894C100.973 45.3637 101.286 45.0495 101.511 44.6468C101.737 44.238 101.849 43.7682 101.849 43.2374V39.9245H102.296V43.274C102.296 43.8781 102.168 44.415 101.913 44.8848C101.657 45.3545 101.296 45.7237 100.827 45.9921C100.365 46.2606 99.8172 46.3948 99.1845 46.3948Z" fill="#151515"/>
<path d="M105.779 46.3307V39.9245H106.281L112.066 45.8365L111.975 46.0745C111.969 45.983 111.963 45.803 111.957 45.5345C111.957 45.2661 111.957 44.9641 111.957 44.6285C111.957 44.2868 111.954 43.9604 111.948 43.6493C111.948 43.332 111.948 43.0666 111.948 42.8531C111.948 42.6334 111.945 42.5205 111.938 42.5145V39.9245H112.395V46.3307H111.865L106.126 40.4736L106.162 40.2174C106.162 40.2601 106.162 40.3699 106.162 40.5468C106.168 40.7177 106.174 40.9251 106.18 41.1691C106.186 41.4132 106.193 41.6664 106.199 41.9287C106.211 42.1911 106.22 42.4351 106.226 42.6609C106.232 42.8805 106.235 43.0544 106.235 43.1825V46.3307H105.779Z" fill="#151515"/>
<path d="M119.315 46.4222C118.743 46.4222 118.217 46.346 117.737 46.1935C117.256 46.0348 116.836 45.8121 116.477 45.5254C116.118 45.2386 115.838 44.8939 115.638 44.4912C115.437 44.0886 115.337 43.6371 115.337 43.1368C115.337 42.6731 115.434 42.243 115.629 41.8464C115.829 41.4498 116.106 41.1051 116.459 40.8122C116.812 40.5194 117.229 40.2906 117.709 40.1258C118.19 39.9611 118.713 39.8787 119.279 39.8787C119.674 39.8787 120.057 39.9245 120.429 40.016C120.806 40.1075 121.146 40.2265 121.451 40.3729C121.755 40.5133 121.992 40.6749 122.162 40.858L121.907 41.2332C121.718 41.0685 121.481 40.919 121.195 40.7848C120.909 40.6505 120.599 40.5438 120.264 40.4645C119.936 40.379 119.613 40.3363 119.297 40.3363C118.804 40.3363 118.345 40.4065 117.919 40.5468C117.499 40.6872 117.131 40.8824 116.815 41.1325C116.505 41.3827 116.264 41.6786 116.094 42.0203C115.924 42.3619 115.838 42.7341 115.838 43.1368C115.838 43.57 115.927 43.9604 116.103 44.3082C116.279 44.656 116.526 44.9549 116.842 45.2051C117.165 45.4491 117.536 45.6383 117.956 45.7725C118.381 45.9006 118.844 45.9647 119.343 45.9647C119.768 45.9647 120.17 45.9067 120.547 45.7908C120.93 45.6749 121.265 45.5193 121.551 45.324C121.843 45.1227 122.071 44.9 122.235 44.656C122.4 44.4058 122.479 44.1496 122.473 43.8872V43.5394L122.673 43.8323H119.315V43.3839H122.911C122.917 43.4083 122.92 43.451 122.92 43.512C122.926 43.5669 122.929 43.6249 122.929 43.6859C122.935 43.7408 122.938 43.7896 122.938 43.8323C122.938 44.1618 122.844 44.4821 122.655 44.7932C122.473 45.1044 122.214 45.382 121.879 45.626C121.545 45.8701 121.159 46.0653 120.721 46.2118C120.283 46.3521 119.814 46.4222 119.315 46.4222Z" fill="#151515"/>
</svg>
