<svg width="161" height="38" viewBox="0 0 161 38" fill="none" xmlns="http://www.w3.org/2000/svg">
<path d="M0 0L12.6477 1.18288V27.2062L24.266 30.0156V35.4864L0 38V0Z" fill="white"/>
<path d="M36.3254 4.28794L24.266 6.80156V30.0156L36.3254 32.9728V4.28794Z" fill="white"/>
<path d="M46.973 12.535L46.606 10.5761L53.7075 4.99766H56.5312L46.973 12.535ZM45.5612 14.9339V4.99766H47.679V14.9339H45.5612ZM53.8205 14.9339L49.5708 9.69606L50.8415 8.19144L56.4606 14.9339H53.8205Z" fill="white"/>
<path d="M60.755 14.9339V4.99766H69.4096V6.87135H62.8163V13.0602H69.5084V14.9339H60.755ZM61.8845 10.7748V8.95794H68.7319V10.7748H61.8845Z" fill="white"/>
<path d="M74.0875 14.9339V4.99766H79.8337C80.5585 4.99766 81.1844 5.13015 81.7115 5.39511C82.248 5.65061 82.6621 6.01494 82.9539 6.48809C83.2457 6.96124 83.3915 7.5101 83.3915 8.13466C83.3915 8.75922 83.2268 9.32227 82.8974 9.82381C82.5774 10.3159 82.1397 10.7086 81.5844 11.002C81.0385 11.2953 80.4267 11.442 79.749 11.442H76.1347V14.9339H74.0875ZM81.4714 14.9339L78.1113 10.4484L80.342 10.0935L83.9845 14.948L81.4714 14.9339ZM76.1347 9.71025H79.509C79.8196 9.71025 80.102 9.64874 80.3561 9.52573C80.6196 9.39324 80.8267 9.21345 80.9773 8.98633C81.1373 8.75922 81.2173 8.50372 81.2173 8.21983C81.2173 7.9454 81.1373 7.70409 80.9773 7.4959C80.8267 7.28772 80.6196 7.12685 80.3561 7.01329C80.0925 6.89973 79.8055 6.84296 79.4949 6.84296H76.1347V9.71025Z" fill="white"/>
<path d="M87.0147 14.9339L91.8855 4.99766H94.0033L98.86 14.9339H96.6293L93.5797 8.73083C93.4856 8.53211 93.3915 8.34285 93.2974 8.16305C93.2126 7.98325 93.1326 7.80819 93.0573 7.63785C92.982 7.45805 92.9115 7.27825 92.8456 7.09846C92.7797 6.91866 92.7138 6.7294 92.6479 6.53068L93.1562 6.51648C93.0903 6.72467 93.0197 6.92339 92.9444 7.11265C92.8691 7.30191 92.7891 7.48644 92.7044 7.66624C92.6291 7.84604 92.5491 8.02584 92.4644 8.20563C92.3797 8.38543 92.2902 8.57469 92.1961 8.77341L89.1607 14.9339H87.0147ZM89.2171 12.9892L89.9513 11.2717H95.8528L96.1493 12.9892H89.2171Z" fill="white"/>
<path d="M102.379 14.9339V4.99766H104.314L108.817 10.6045H107.73L112.234 4.99766H114.168V14.9339H112.093V11.3852C112.093 10.5998 112.112 9.86166 112.149 9.17086C112.187 8.48006 112.262 7.77506 112.375 7.05587L112.587 7.7798L108.747 12.3788H107.815L103.932 7.75141L104.172 7.05587C104.285 7.77506 104.361 8.48006 104.398 9.17086C104.436 9.86166 104.455 10.5998 104.455 11.3852V14.9339H102.379Z" fill="white"/>
<path d="M119.33 14.9339V13.0034H121.97V6.92812H119.33V4.99766H126.728V6.92812H124.087V13.0034H126.728V14.9339H119.33Z" fill="white"/>
<path d="M133.31 12.535L132.943 10.5761L140.045 4.99766H142.868L133.31 12.535ZM131.898 14.9339V4.99766H134.016V14.9339H131.898ZM140.158 14.9339L135.908 9.69606L137.179 8.19144L142.798 14.9339H140.158Z" fill="white"/>
<path d="M45.5612 26.9105V16.9743H51.1239C51.9804 16.9743 52.6957 17.0737 53.2699 17.2724C53.8534 17.4617 54.2911 17.7408 54.5829 18.1099C54.8841 18.4789 55.0346 18.919 55.0346 19.43C55.0346 19.9788 54.8652 20.4473 54.5264 20.8352C54.197 21.2138 53.6981 21.4835 53.0298 21.6443L53.1146 21.3746C53.5287 21.4693 53.924 21.6207 54.3005 21.8289C54.677 22.037 54.9782 22.3162 55.2041 22.6663C55.4394 23.007 55.557 23.4281 55.557 23.9296C55.557 24.5258 55.4347 25.0179 55.19 25.4059C54.9452 25.7939 54.6205 26.0967 54.2158 26.3143C53.8111 26.532 53.3687 26.6881 52.8887 26.7828C52.418 26.8679 51.9521 26.9105 51.4909 26.9105H45.5612ZM47.5943 25.0652H51.5474C51.9145 25.0652 52.2392 25.0226 52.5216 24.9375C52.8134 24.8523 53.0392 24.7198 53.1993 24.54C53.3687 24.3508 53.4534 24.1189 53.4534 23.8445C53.4534 23.5227 53.3451 23.2767 53.1287 23.1064C52.9216 22.9266 52.6628 22.8035 52.3522 22.7373C52.051 22.6616 51.7592 22.6237 51.4768 22.6237H47.5943V25.0652ZM47.5943 20.9204H51.2368C51.5474 20.9204 51.8298 20.8778 52.0839 20.7927C52.3475 20.7075 52.5498 20.5845 52.691 20.4236C52.8416 20.2627 52.9169 20.0687 52.9169 19.8416C52.9169 19.4631 52.7428 19.1981 52.3945 19.0467C52.0557 18.8953 51.6321 18.8196 51.1239 18.8196H47.5943V20.9204Z" fill="white"/>
<path d="M58.3781 26.9105L63.2489 16.9743H65.3667L70.2234 26.9105H67.9927L64.9431 20.7075C64.849 20.5088 64.7549 20.3195 64.6607 20.1397C64.576 19.9599 64.496 19.7848 64.4207 19.6145C64.3454 19.4347 64.2748 19.2549 64.209 19.0751C64.1431 18.8953 64.0772 18.7061 64.0113 18.5073L64.5196 18.4931C64.4537 18.7013 64.3831 18.9 64.3078 19.0893C64.2325 19.2786 64.1525 19.4631 64.0678 19.6429C63.9925 19.8227 63.9125 20.0025 63.8278 20.1823C63.743 20.3621 63.6536 20.5513 63.5595 20.7501L60.5241 26.9105H58.3781ZM60.5805 24.9658L61.3147 23.2483H67.2162L67.5127 24.9658H60.5805Z" fill="white"/>
<path d="M73.7428 26.9105V16.9743H75.7759L83.2163 24.3981H82.9622C82.9151 24.0574 82.8727 23.7262 82.8351 23.4044C82.8068 23.0732 82.7833 22.7515 82.7645 22.4392C82.7457 22.1175 82.7268 21.8052 82.708 21.5024C82.6986 21.1901 82.6892 20.8873 82.6798 20.5939C82.6798 20.2911 82.6798 19.9883 82.6798 19.6855V16.9743H84.7552V26.9105H82.6939L75.1406 19.4158L75.5359 19.43C75.5547 19.5814 75.5735 19.7564 75.5923 19.9552C75.6206 20.1444 75.6488 20.3621 75.6771 20.6081C75.7053 20.8447 75.7288 21.1049 75.7477 21.3888C75.7665 21.6727 75.7806 21.9803 75.79 22.3115C75.8088 22.6332 75.8182 22.9739 75.8182 23.3335V26.9105H73.7428Z" fill="white"/>
<path d="M94.9188 27.0524C94.0905 27.0524 93.314 26.9436 92.5892 26.726C91.8739 26.5083 91.248 26.1866 90.7115 25.7607C90.175 25.3349 89.7514 24.805 89.4408 24.171C89.1396 23.5275 88.989 22.7752 88.989 21.914C88.989 21.1854 89.1443 20.5135 89.4549 19.8984C89.7656 19.2738 90.2032 18.7344 90.768 18.2802C91.3327 17.8165 91.9963 17.4569 92.7587 17.2014C93.521 16.9459 94.3493 16.8182 95.2435 16.8182C95.9776 16.8182 96.6506 16.8986 97.2624 17.0595C97.8836 17.2204 98.4295 17.4238 98.9002 17.6698C99.3802 17.9159 99.7614 18.1809 100.044 18.4647L98.7307 19.941C98.4295 19.7139 98.0954 19.5104 97.7283 19.3306C97.3707 19.1508 96.98 19.0089 96.5565 18.9048C96.1424 18.7912 95.7 18.7344 95.2294 18.7344C94.6646 18.7344 94.1375 18.8149 93.6481 18.9757C93.1681 19.1366 92.7445 19.359 92.3774 19.6429C92.0104 19.9268 91.7233 20.2627 91.5162 20.6507C91.3186 21.0387 91.2197 21.4598 91.2197 21.914C91.2197 22.4913 91.328 22.9881 91.5445 23.4044C91.7609 23.8114 92.0527 24.1426 92.4198 24.3981C92.7963 24.6441 93.2151 24.8286 93.6763 24.9517C94.147 25.0652 94.6411 25.122 95.1588 25.122C95.6765 25.122 96.1612 25.0747 96.613 24.98C97.0648 24.8854 97.4554 24.7482 97.7848 24.5684C98.1236 24.3886 98.3825 24.1757 98.5613 23.9296C98.7496 23.6741 98.8343 23.3997 98.8154 23.1064L98.8013 22.8651L99.0978 23.3761H95.0741V21.6301H100.919C100.928 21.7721 100.938 21.914 100.947 22.056C100.957 22.1884 100.961 22.3067 100.961 22.4108C100.971 22.5055 100.976 22.5717 100.976 22.6096C100.976 23.3571 100.83 24.0101 100.538 24.5684C100.246 25.1173 99.832 25.5762 99.2955 25.9453C98.7684 26.3143 98.133 26.5935 97.3895 26.7828C96.6459 26.9625 95.8223 27.0524 94.9188 27.0524Z" fill="white"/>
<path d="M110.136 26.9957C109.1 26.9957 108.197 26.7875 107.425 26.3711C106.662 25.9453 106.065 25.368 105.632 24.6394C105.208 23.9107 104.996 23.0827 104.996 22.1553V16.9601H107.128V22.0985C107.128 22.6758 107.26 23.1868 107.524 23.6316C107.787 24.0763 108.145 24.4265 108.597 24.682C109.048 24.9375 109.561 25.0652 110.136 25.0652C110.728 25.0652 111.256 24.9375 111.717 24.682C112.178 24.4265 112.54 24.0763 112.804 23.6316C113.067 23.1868 113.199 22.6758 113.199 22.0985V16.9601H115.26V22.1553C115.26 23.0827 115.044 23.9107 114.611 24.6394C114.188 25.368 113.59 25.9453 112.818 26.3711C112.056 26.7875 111.161 26.9957 110.136 26.9957Z" fill="white"/>
<path d="M120.083 26.9105V16.9743H122.116L129.556 24.3981H129.302C129.255 24.0574 129.212 23.7262 129.175 23.4044C129.147 23.0732 129.123 22.7515 129.104 22.4392C129.085 22.1175 129.067 21.8052 129.048 21.5024C129.038 21.1901 129.029 20.8873 129.02 20.5939C129.02 20.2911 129.02 19.9883 129.02 19.6855V16.9743H131.095V26.9105H129.034L121.48 19.4158L121.876 19.43C121.894 19.5814 121.913 19.7564 121.932 19.9552C121.96 20.1444 121.989 20.3621 122.017 20.6081C122.045 20.8447 122.069 21.1049 122.087 21.3888C122.106 21.6727 122.12 21.9803 122.13 22.3115C122.149 22.6332 122.158 22.9739 122.158 23.3335V26.9105H120.083Z" fill="white"/>
<path d="M134.623 26.9105L139.494 16.9743H141.611L146.468 26.9105H144.237L141.188 20.7075C141.094 20.5088 141 20.3195 140.906 20.1397C140.821 19.9599 140.741 19.7848 140.666 19.6145C140.59 19.4347 140.52 19.2549 140.454 19.0751C140.388 18.8953 140.322 18.7061 140.256 18.5073L140.764 18.4931C140.698 18.7013 140.628 18.9 140.553 19.0893C140.477 19.2786 140.397 19.4631 140.313 19.6429C140.237 19.8227 140.157 20.0025 140.073 20.1823C139.988 20.3621 139.898 20.5513 139.804 20.7501L136.769 26.9105H134.623ZM136.825 24.9658L137.559 23.2483H143.461L143.757 24.9658H136.825Z" fill="white"/>
<path d="M149.988 26.9105V16.9743H152.021L159.461 24.3981H159.207C159.16 24.0574 159.118 23.7262 159.08 23.4044C159.052 23.0732 159.028 22.7515 159.009 22.4392C158.99 22.1175 158.972 21.8052 158.953 21.5024C158.943 21.1901 158.934 20.8873 158.925 20.5939C158.925 20.2911 158.925 19.9883 158.925 19.6855V16.9743H161V26.9105H158.939L151.385 19.4158L151.781 19.43C151.799 19.5814 151.818 19.7564 151.837 19.9552C151.865 20.1444 151.894 20.3621 151.922 20.6081C151.95 20.8447 151.974 21.1049 151.992 21.3888C152.011 21.6727 152.025 21.9803 152.035 22.3115C152.054 22.6332 152.063 22.9739 152.063 23.3335V26.9105H149.988Z" fill="white"/>
<path d="M45.6224 35.93V30.9619H48.2837C48.632 30.9619 48.9308 31.0115 49.1802 31.1109C49.4344 31.2055 49.6297 31.3451 49.7661 31.5296C49.9073 31.7142 49.9779 31.9389 49.9779 32.2039C49.9779 32.4925 49.8909 32.7338 49.7167 32.9278C49.5426 33.1171 49.2908 33.2519 48.9614 33.3324L48.9755 33.2117C49.2108 33.2543 49.4226 33.33 49.6108 33.4388C49.7991 33.5476 49.9497 33.6872 50.0626 33.8576C50.1803 34.0279 50.2391 34.2337 50.2391 34.475C50.2391 34.7258 50.1873 34.9434 50.0838 35.128C49.9803 35.3078 49.8461 35.4568 49.6814 35.5751C49.5214 35.6934 49.3379 35.7833 49.1308 35.8448C48.9284 35.9016 48.719 35.93 48.5025 35.93H45.6224ZM45.9824 35.5751H48.4249C48.6743 35.5798 48.9049 35.5443 49.1167 35.4686C49.3332 35.3929 49.5097 35.2746 49.6461 35.1138C49.7826 34.9482 49.8508 34.7494 49.8508 34.5176C49.8508 34.2858 49.7826 34.0941 49.6461 33.9427C49.5144 33.7913 49.3379 33.6778 49.1167 33.6021C48.8955 33.5216 48.6531 33.4814 48.3896 33.4814H45.9824V35.5751ZM45.9824 33.1265H48.4108C48.6649 33.1265 48.879 33.0934 49.0532 33.0272C49.232 32.9562 49.3661 32.8545 49.4555 32.722C49.5497 32.5848 49.5967 32.4192 49.5967 32.2252C49.5967 31.9271 49.4838 31.7023 49.2579 31.5509C49.032 31.3948 48.7261 31.3167 48.3402 31.3167H45.9824V33.1265Z" fill="white"/>
<path d="M51.8245 35.93L54.2246 30.9619H54.7329L57.1118 35.93H56.7095L54.867 32.069C54.787 31.8798 54.7258 31.7426 54.6835 31.6574C54.6458 31.5722 54.6129 31.5084 54.5846 31.4658C54.5611 31.4232 54.5376 31.3759 54.5141 31.3238C54.4905 31.267 54.4576 31.1748 54.4152 31.047H54.5141C54.4623 31.2032 54.4199 31.3167 54.387 31.3877C54.3588 31.4539 54.3305 31.5107 54.3023 31.558C54.274 31.6053 54.2411 31.6669 54.2034 31.7426C54.1658 31.8183 54.1117 31.9413 54.0411 32.1116L52.1986 35.93H51.8245ZM52.7704 34.4963L52.9257 34.1485H56.0388L56.1165 34.4963H52.7704Z" fill="white"/>
<path d="M59.141 35.93V30.9619H59.5293L64.0048 35.5467L63.9342 35.7312C63.9295 35.6603 63.9248 35.5207 63.9201 35.3125C63.9201 35.1043 63.9201 34.8701 63.9201 34.6099C63.9201 34.3449 63.9177 34.0918 63.913 33.8505C63.913 33.6044 63.913 33.3986 63.913 33.233C63.913 33.0627 63.9107 32.9751 63.906 32.9704V30.9619H64.2589V35.93H63.8495L59.4093 31.3877L59.4375 31.189C59.4375 31.2221 59.4375 31.3073 59.4375 31.4445C59.4422 31.577 59.4469 31.7378 59.4516 31.9271C59.4563 32.1164 59.461 32.3127 59.4657 32.5162C59.4752 32.7196 59.4822 32.9089 59.4869 33.084C59.4916 33.2543 59.494 33.3891 59.494 33.4885V35.93H59.141Z" fill="white"/>
<path d="M66.9723 35.93V30.9619H69.3371C69.756 30.9619 70.1348 31.0257 70.4737 31.1535C70.8125 31.2812 71.1019 31.4563 71.342 31.6787C71.582 31.8963 71.7679 32.1566 71.8996 32.4594C72.0314 32.7622 72.0973 33.091 72.0973 33.4459C72.0973 33.8008 72.0314 34.132 71.8996 34.4395C71.7679 34.7423 71.582 35.0026 71.342 35.2202C71.1019 35.4379 70.8125 35.6106 70.4737 35.7383C70.1348 35.8661 69.756 35.93 69.3371 35.93H66.9723ZM67.3253 35.6957L67.2264 35.5751H69.3018C69.6689 35.5751 70.0007 35.523 70.2972 35.419C70.5937 35.3149 70.8455 35.1658 71.0525 34.9718C71.2643 34.7778 71.4267 34.5531 71.5396 34.2976C71.6526 34.0421 71.709 33.7582 71.709 33.4459C71.709 33.1384 71.6526 32.8568 71.5396 32.6013C71.4267 32.3458 71.2643 32.1211 71.0525 31.9271C70.8455 31.7331 70.5937 31.5841 70.2972 31.48C70.0007 31.3711 69.6689 31.3167 69.3018 31.3167H67.2053L67.3253 31.2103V35.6957Z" fill="white"/>
<path d="M76.7271 35.9796C76.247 35.9796 75.8282 35.8755 75.4705 35.6674C75.1176 35.4592 74.8423 35.1729 74.6446 34.8086C74.4517 34.4395 74.3552 34.0208 74.3552 33.5524V30.9619H74.7081V33.5311C74.7081 33.9427 74.7952 34.307 74.9693 34.6241C75.1435 34.9363 75.3835 35.18 75.6894 35.3551C75.9953 35.5301 76.3412 35.6177 76.7271 35.6177C77.1365 35.6177 77.4942 35.5301 77.8001 35.3551C78.1107 35.18 78.353 34.9363 78.5272 34.6241C78.7013 34.307 78.7884 33.9427 78.7884 33.5311V30.9619H79.1343V33.5595C79.1343 34.0279 79.0354 34.4443 78.8378 34.8086C78.6401 35.1729 78.3601 35.4592 77.9977 35.6674C77.6401 35.8755 77.2165 35.9796 76.7271 35.9796Z" fill="white"/>
<path d="M81.8283 35.93V30.9619H82.2166L86.6921 35.5467L86.6215 35.7312C86.6168 35.6603 86.6121 35.5207 86.6074 35.3125C86.6074 35.1043 86.6074 34.8701 86.6074 34.6099C86.6074 34.3449 86.6051 34.0918 86.6003 33.8505C86.6003 33.6044 86.6003 33.3986 86.6003 33.233C86.6003 33.0627 86.598 32.9751 86.5933 32.9704V30.9619H86.9463V35.93H86.5368L82.0966 31.3877L82.1248 31.189C82.1248 31.2221 82.1248 31.3073 82.1248 31.4445C82.1295 31.577 82.1342 31.7378 82.1389 31.9271C82.1436 32.1164 82.1484 32.3127 82.1531 32.5162C82.1625 32.7196 82.1695 32.9089 82.1742 33.084C82.1789 33.2543 82.1813 33.3891 82.1813 33.4885V35.93H81.8283Z" fill="white"/>
<path d="M92.2998 36.0009C91.8574 36.0009 91.4503 35.9418 91.0785 35.8235C90.7067 35.7005 90.382 35.5278 90.1044 35.3054C89.8267 35.083 89.6102 34.8157 89.4549 34.5034C89.2996 34.1911 89.222 33.841 89.222 33.453C89.222 33.0934 89.2973 32.7598 89.4479 32.4523C89.6032 32.1447 89.8173 31.8774 90.0902 31.6503C90.3632 31.4232 90.6856 31.2458 91.0573 31.118C91.4291 30.9903 91.8339 30.9264 92.2715 30.9264C92.5774 30.9264 92.8739 30.9619 93.161 31.0328C93.4528 31.1038 93.7163 31.1961 93.9516 31.3096C94.1869 31.4185 94.3705 31.5438 94.5022 31.6858L94.3046 31.9768C94.1587 31.849 93.9752 31.7331 93.754 31.629C93.5328 31.5249 93.2928 31.4421 93.0339 31.3806C92.7798 31.3144 92.5304 31.2812 92.2857 31.2812C91.9045 31.2812 91.5491 31.3357 91.2197 31.4445C90.895 31.5533 90.6103 31.7047 90.3655 31.8987C90.1255 32.0927 89.9396 32.3222 89.8079 32.5871C89.6761 32.8521 89.6102 33.1407 89.6102 33.453C89.6102 33.7889 89.6784 34.0918 89.8149 34.3615C89.9514 34.6312 90.142 34.863 90.3867 35.057C90.6361 35.2463 90.9232 35.3929 91.2479 35.497C91.5774 35.5964 91.935 35.6461 92.3209 35.6461C92.6504 35.6461 92.961 35.6011 93.2528 35.5112C93.5492 35.4213 93.8081 35.3007 94.0293 35.1493C94.2552 34.9931 94.4316 34.8204 94.5587 34.6312C94.6858 34.4372 94.747 34.2384 94.7422 34.035V33.7653L94.8976 33.9924H92.2998V33.6446H95.0811C95.0858 33.6636 95.0881 33.6967 95.0881 33.744C95.0928 33.7866 95.0952 33.8315 95.0952 33.8788C95.0999 33.9214 95.1023 33.9593 95.1023 33.9924C95.1023 34.2479 95.0293 34.4963 94.8834 34.7376C94.7422 34.9789 94.5422 35.1942 94.2834 35.3835C94.0246 35.5727 93.7257 35.7241 93.3869 35.8377C93.048 35.9465 92.6857 36.0009 92.2998 36.0009Z" fill="white"/>
</svg>
